<svg width="241" height="117" viewBox="0 0 241 117" fill="none" xmlns="http://www.w3.org/2000/svg">
<path d="M35.0957 47.9597H38.6255V64.8528H49.231V68.0523H35.0957V47.9597Z" fill="#E57A10"/>
<path d="M57.3457 64.9168V59.5097H67.4538V56.3423H53.7998V68.0683H68.8978V64.9168H57.3457Z" fill="#E57A10"/>
<path d="M68.7534 47.9597H53.7998V51.1272H68.7534V47.9597Z" fill="#C2B7C3"/>
<path d="M85.2406 47.8157H82.0317L73.127 68.0682H76.753L78.8388 63.269L80.1384 60.1495L83.588 52.1509L87.0697 60.1495L88.4496 63.205L90.4872 68.0042H94.2417L85.2406 47.8157Z" fill="#E57A10"/>
<path d="M98.4902 47.9597H101.779L112.577 61.8613V47.9597H116.075V68.0682H113.107L101.988 53.7667V68.0682H98.4902V47.9597Z" fill="#E57A10"/>
<path d="M121.318 57.5581H129.838V60.9815H121.318V57.5581Z" fill="#C2B7C3"/>
<path d="M134.761 47.9597H149.779V51.1592H138.307V56.6462H148.479V59.8457H138.307V68.0682H134.761V47.9597Z" fill="#3E3233"/>
<path d="M153.481 58.1499C153.468 56.7685 153.734 55.3985 154.262 54.1215C154.791 52.8445 155.571 51.6865 156.558 50.7164C157.544 49.7463 158.716 48.9839 160.004 48.4746C161.292 47.9653 162.67 47.7194 164.055 47.7517C165.433 47.7127 166.805 47.9522 168.089 48.4559C169.372 48.9596 170.54 49.717 171.521 50.6825C172.503 51.6481 173.279 52.8017 173.802 54.074C174.325 55.3464 174.584 56.711 174.564 58.0859C174.577 59.4673 174.312 60.8372 173.783 62.1142C173.255 63.3912 172.474 64.5492 171.488 65.5193C170.501 66.4894 169.329 67.2518 168.041 67.7611C166.753 68.2705 165.376 68.5163 163.991 68.4841C162.613 68.5208 161.241 68.2797 159.959 67.7752C158.677 67.2707 157.51 66.5132 156.529 65.5481C155.548 64.5831 154.772 63.4303 154.248 62.159C153.724 60.8877 153.464 59.5241 153.481 58.1499V58.1499ZM170.842 58.1499C170.88 57.2266 170.732 56.305 170.406 55.4401C170.08 54.5752 169.582 53.7847 168.943 53.1158C168.303 52.4469 167.535 51.9133 166.684 51.5469C165.833 51.1805 164.917 50.9887 163.991 50.9831C163.07 50.9843 162.16 51.1713 161.314 51.5328C160.468 51.8943 159.704 52.4228 159.068 53.0864C158.433 53.7501 157.938 54.5352 157.615 55.3944C157.292 56.2536 157.146 57.1691 157.188 58.0859V58.0859C157.153 59.0086 157.305 59.9288 157.634 60.7919C157.963 61.655 158.463 62.4434 159.103 63.1103C159.744 63.7773 160.512 64.3091 161.363 64.6744C162.213 65.0396 163.129 65.2308 164.055 65.2366C164.972 65.2332 165.88 65.045 166.723 64.6836C167.566 64.3221 168.327 63.7948 168.961 63.1331C169.594 62.4714 170.087 61.689 170.411 60.8327C170.734 59.9764 170.88 59.0639 170.842 58.1499Z" fill="#3E3233"/>
<path d="M179.728 47.9597H188.729C189.782 47.8983 190.837 48.0447 191.834 48.3906C192.831 48.7364 193.749 49.275 194.537 49.9753C195.091 50.5509 195.526 51.2304 195.815 51.9746C196.104 52.7188 196.242 53.5128 196.221 54.3106V54.3106C196.263 55.726 195.803 57.1108 194.923 58.2222C194.043 59.3337 192.798 60.1009 191.408 60.3895L196.847 68.0042H192.676L187.718 60.9974H183.273V68.0682H179.728V47.9597ZM188.472 57.926C191.007 57.926 192.611 56.6142 192.611 54.5665C192.611 52.4229 191.007 51.2391 188.44 51.2391H183.273V57.99L188.472 57.926Z" fill="#3E3233"/>
<path d="M200.55 58.15C200.528 56.7813 200.782 55.4221 201.296 54.153C201.811 52.8838 202.575 51.7303 203.545 50.7609C204.514 49.7914 205.669 49.0256 206.94 48.5088C208.211 47.9919 209.574 47.7346 210.946 47.7518C213.786 47.617 216.567 48.5927 218.696 50.4714L216.45 53.1429C214.954 51.6808 212.945 50.8598 210.85 50.8553C209.953 50.8923 209.072 51.1056 208.258 51.4829C207.444 51.8603 206.712 52.3942 206.105 53.0542C205.499 53.7141 205.029 54.4871 204.722 55.3286C204.416 56.1701 204.279 57.0637 204.32 57.9581V57.9581C204.255 58.8874 204.385 59.82 204.702 60.6964C205.019 61.5728 205.516 62.3737 206.16 63.0481C206.805 63.7224 207.583 64.2554 208.446 64.613C209.309 64.9705 210.237 65.1449 211.171 65.1248C212.905 65.1147 214.591 64.5544 215.984 63.5251V59.9097H210.85V56.8383H219.434V65.2848C217.111 67.3279 214.125 68.4643 211.027 68.4842C209.643 68.5493 208.261 68.3275 206.968 67.8327C205.675 67.3378 204.498 66.5808 203.514 65.6095C202.529 64.6382 201.757 63.4738 201.247 62.1898C200.737 60.9058 200.499 59.5302 200.55 58.15V58.15Z" fill="#3E3233"/>
<path d="M228.448 64.9168V59.5097H238.556V56.3423H224.902V68.0683H240V64.9168H228.448Z" fill="#3E3233"/>
<path d="M239.856 47.9597H224.902V51.1272H239.856V47.9597Z" fill="#C2B7C3"/>
<path d="M109.216 69.716H107.034C106.994 69.8203 106.962 69.9272 106.937 70.0359L106.745 70.8038L113.275 74.5471L100.038 97.3912L93.6203 93.6318L93.0106 94.1917C87.1444 99.8357 79.9842 103.965 72.1526 106.222L71.3825 106.446V113.932H44.8768V106.446L44.0906 106.222C36.262 103.958 29.1034 99.8295 23.2326 94.1917L22.655 93.6318L16.1409 97.3912L2.95221 74.5471L9.37005 70.8038L9.17752 70.0359C7.17474 62.1619 7.17474 53.914 9.17752 46.04L9.37005 45.2722L2.95221 41.4648L16.1248 18.6368L22.6389 22.3801L23.2165 21.8362C29.0992 16.2105 36.2532 12.0789 44.0745 9.79031L44.8607 9.58234V2.15963H71.3022V9.63034L72.0724 9.8383C79.8969 12.1193 87.0527 16.2519 92.9304 21.8842L93.5401 22.4281L99.9579 18.6848L113.195 41.5128L106.665 45.2722L106.857 46.04C106.857 46.136 106.857 46.248 106.953 46.36H109.135L116.099 42.3607L100.824 15.7413L93.8449 19.7566C88.0252 14.3437 81.0459 10.3228 73.4362 7.99862V0H42.7428V7.99862C35.1265 10.3185 28.1411 14.3398 22.318 19.7566L15.3547 15.7573L0 42.2647L6.9794 46.264C5.11822 53.9874 5.11822 62.0405 6.9794 69.764L0 73.7792L15.3547 100.287L22.318 96.2874C28.1411 101.704 35.1265 105.725 42.7428 108.045V116.044H73.4362V108.045C81.0459 105.721 88.0252 101.7 93.8449 96.2874L100.824 100.287L116.163 73.7792L109.2 69.764L109.216 69.716Z" fill="#C2B7C3"/>
<path d="M58.0812 93.9837C51.4524 93.9834 44.9517 92.1625 39.2926 88.7208C33.6335 85.2792 29.0346 80.3498 26.0005 74.4735C22.9664 68.5972 21.6144 62.0012 22.0928 55.4092C22.5713 48.8172 24.8616 42.484 28.7127 37.1045C32.5637 31.725 37.8265 27.5071 43.9237 24.9137C50.0208 22.3203 56.7167 21.4515 63.2765 22.4027C69.8362 23.354 76.0065 26.0885 81.1101 30.3061C86.2137 34.5238 90.0535 40.0616 92.208 46.312H94.4062C91.6096 37.6711 85.8104 30.3098 78.053 25.5539C70.2956 20.7981 61.09 18.9604 52.0941 20.3717C43.0983 21.783 34.9035 26.3506 28.9858 33.2518C23.0681 40.1531 19.8164 48.9343 19.8164 58.014C19.8164 67.0936 23.0681 75.8748 28.9858 82.7761C34.9035 89.6773 43.0983 94.2449 52.0941 95.6562C61.09 97.0675 70.2956 95.2298 78.053 90.474C85.8104 85.7181 91.6096 78.3568 94.4062 69.7159H92.208C89.754 76.7951 85.1488 82.9361 79.0327 87.2853C72.9166 91.6345 65.5934 93.9758 58.0812 93.9837V93.9837Z" fill="#C2B7C3"/>
<path d="M124.694 78.3683C125.781 78.3683 126.425 77.9358 126.973 77.3239L126.203 76.5643C125.802 76.9758 125.359 77.2606 124.758 77.2606C123.777 77.2606 123.091 76.4588 123.091 75.4672V75.4461C123.091 74.4755 123.766 73.6738 124.694 73.6738C125.338 73.6738 125.749 73.9586 126.14 74.37L126.931 73.5155C126.414 72.9459 125.76 72.5555 124.705 72.5555C123.038 72.5555 121.814 73.8848 121.814 75.4672V75.4883C121.814 77.0707 123.038 78.3683 124.694 78.3683Z" fill="#C2B7C3"/>
<path d="M129.941 78.2417H131.217V76.1213C131.217 74.6443 131.998 73.9164 133.116 73.9164H133.19V72.5661C132.209 72.5239 131.565 73.0936 131.217 73.927V72.6716H129.941V78.2417Z" fill="#C2B7C3"/>
<path d="M140.497 78.2417V74.9397C140.497 73.4522 139.696 72.5872 138.05 72.5872C137.143 72.5872 136.541 72.7771 135.929 73.0514L136.278 74.0747C136.784 73.8637 137.248 73.7265 137.871 73.7265C138.757 73.7265 139.242 74.1485 139.242 74.9186V75.0241C138.809 74.887 138.377 74.792 137.702 74.792C136.404 74.792 135.444 75.3828 135.444 76.6171V76.6382C135.444 77.7564 136.373 78.3577 137.427 78.3577C138.271 78.3577 138.852 78.0096 139.231 77.556V78.2417H140.497ZM139.263 76.2267C139.263 76.923 138.63 77.3977 137.786 77.3977C137.185 77.3977 136.71 77.1024 136.71 76.5749V76.5538C136.71 76.0158 137.185 75.6887 137.987 75.6887C138.482 75.6887 138.936 75.7837 139.263 75.9103V76.2267Z" fill="#C2B7C3"/>
<path d="M144.094 78.2417H145.37V73.7687H146.826V72.7138H145.349V72.4078C145.349 71.8276 145.602 71.5639 146.088 71.5639C146.362 71.5639 146.583 71.6166 146.837 71.701V70.625C146.552 70.5406 146.246 70.4773 145.803 70.4773C145.254 70.4773 144.843 70.625 144.547 70.9204C144.252 71.2158 144.094 71.6799 144.094 72.3024V72.7032H143.387V73.7687H144.094V78.2417Z" fill="#C2B7C3"/>
<path d="M151.436 78.3366C151.911 78.3366 152.269 78.2311 152.586 78.0518V77.0074C152.333 77.134 152.08 77.1973 151.795 77.1973C151.362 77.1973 151.109 76.9969 151.109 76.501V73.7687H152.607V72.6716H151.109V71.1419H149.832V72.6716H149.126V73.7687H149.832V76.7015C149.832 77.9252 150.497 78.3366 151.436 78.3366Z" fill="#C2B7C3"/>
<path d="M161.985 78.2839H163.124L164.38 74.4755L165.625 78.2839H166.764L168.589 72.6716H167.312L166.173 76.4905L164.928 72.6505H163.842L162.607 76.4905L161.489 72.6716H160.181L161.985 78.2839Z" fill="#C2B7C3"/>
<path d="M171.546 71.8171H172.918V70.6039H171.546V71.8171ZM171.599 78.2417H172.876V72.6716H171.599V78.2417Z" fill="#C2B7C3"/>
<path d="M178.204 78.3366C178.679 78.3366 179.038 78.2311 179.354 78.0518V77.0074C179.101 77.134 178.848 77.1973 178.563 77.1973C178.131 77.1973 177.877 76.9969 177.877 76.501V73.7687H179.375V72.6716H177.877V71.1419H176.601V72.6716H175.894V73.7687H176.601V76.7015C176.601 77.9252 177.265 78.3366 178.204 78.3366Z" fill="#C2B7C3"/>
<path d="M182.457 78.2417H183.734V75.098C183.734 74.2329 184.251 73.716 184.989 73.716C185.749 73.716 186.181 74.2118 186.181 75.0769V78.2417H187.458V74.6971C187.458 73.3995 186.73 72.5555 185.475 72.5555C184.61 72.5555 184.093 73.0092 183.734 73.5366V70.5406H182.457V78.2417Z" fill="#C2B7C3"/>
<path d="M195.77 71.8171H197.141V70.6039H195.77V71.8171ZM195.823 78.2417H197.099V72.6716H195.823V78.2417Z" fill="#C2B7C3"/>
<path d="M200.561 78.2417H201.837V75.1085C201.837 74.2434 202.323 73.716 203.029 73.716C203.736 73.716 204.158 74.2013 204.158 75.0663V78.2417H205.435V75.098C205.435 74.2013 205.931 73.716 206.627 73.716C207.344 73.716 207.756 74.1907 207.756 75.0769V78.2417H209.032V74.6865C209.032 73.3256 208.294 72.5555 207.08 72.5555C206.237 72.5555 205.646 72.9459 205.192 73.5366C204.897 72.9459 204.338 72.5555 203.536 72.5555C202.681 72.5555 202.196 73.0197 201.837 73.5155V72.6716H200.561V78.2417Z" fill="#C2B7C3"/>
<path d="M212.378 79.9296H213.655V77.3766C214.045 77.8936 214.625 78.3577 215.543 78.3577C216.872 78.3577 218.138 77.3133 218.138 75.4672V75.4461C218.138 73.5999 216.862 72.5555 215.543 72.5555C214.646 72.5555 214.066 73.0197 213.655 73.5999V72.6716H212.378V79.9296ZM215.248 77.25C214.383 77.25 213.623 76.5432 213.623 75.4672V75.4461C213.623 74.3806 214.383 73.6632 215.248 73.6632C216.113 73.6632 216.841 74.37 216.841 75.4461V75.4672C216.841 76.5643 216.123 77.25 215.248 77.25Z" fill="#C2B7C3"/>
<path d="M225.912 78.2417V74.9397C225.912 73.4522 225.111 72.5872 223.465 72.5872C222.558 72.5872 221.956 72.7771 221.345 73.0514L221.693 74.0747C222.199 73.8637 222.663 73.7265 223.286 73.7265C224.172 73.7265 224.657 74.1485 224.657 74.9186V75.0241C224.225 74.887 223.792 74.792 223.117 74.792C221.819 74.792 220.859 75.3828 220.859 76.6171V76.6382C220.859 77.7564 221.788 78.3577 222.843 78.3577C223.687 78.3577 224.267 78.0096 224.647 77.556V78.2417H225.912ZM224.678 76.2267C224.678 76.923 224.045 77.3977 223.201 77.3977C222.6 77.3977 222.125 77.1024 222.125 76.5749V76.5538C222.125 76.0158 222.6 75.6887 223.402 75.6887C223.898 75.6887 224.351 75.7837 224.678 75.9103V76.2267Z" fill="#C2B7C3"/>
<path d="M231.798 78.3683C232.885 78.3683 233.528 77.9358 234.077 77.3239L233.307 76.5643C232.906 76.9758 232.463 77.2606 231.861 77.2606C230.88 77.2606 230.195 76.4588 230.195 75.4672V75.4461C230.195 74.4755 230.87 73.6738 231.798 73.6738C232.442 73.6738 232.853 73.9586 233.243 74.37L234.035 73.5155C233.518 72.9459 232.864 72.5555 231.809 72.5555C230.142 72.5555 228.918 73.8848 228.918 75.4672V75.4883C228.918 77.0707 230.142 78.3683 231.798 78.3683Z" fill="#C2B7C3"/>
<path d="M238.912 78.3366C239.386 78.3366 239.745 78.2311 240.061 78.0518V77.0074C239.808 77.134 239.555 77.1973 239.27 77.1973C238.838 77.1973 238.585 76.9969 238.585 76.501V73.7687H240.083V72.6716H238.585V71.1419H237.308V72.6716H236.601V73.7687H237.308V76.7015C237.308 77.9252 237.973 78.3366 238.912 78.3366Z" fill="#C2B7C3"/>
</svg>
